<svg width="155" height="205" viewBox="0 0 155 205" fill="none" xmlns="http://www.w3.org/2000/svg">
<path fill-rule="evenodd" clip-rule="evenodd" d="M50.9743 68.2344C51.5633 68.1774 52.2131 68.2783 52.9235 68.5593L52.6852 68.2018C53.783 67.47 54.1946 66.6681 54.3069 65.9978C54.4038 65.4197 54.2843 64.901 54.1279 64.5559C53.5247 64.4411 53.0598 64.513 52.6962 64.68C52.2855 64.8687 51.9538 65.2019 51.6908 65.6384C51.2305 66.4025 51.0233 67.4142 50.9743 68.2344ZM53.4362 68.898C54.6018 68.0593 55.1389 67.0841 55.2932 66.163C55.4525 65.2118 55.1953 64.3674 54.8913 63.8606L54.7847 63.683L54.5838 63.6328C53.6923 63.4099 52.9235 63.4752 52.2788 63.7713C51.6396 64.0649 51.1713 64.563 50.8343 65.1223C50.1937 66.1855 49.9782 67.5492 49.9634 68.511C49.493 68.7332 49.1043 69.0657 48.7884 69.4508C47.9184 70.5116 47.5517 72.0271 47.4643 73.0764L48.4608 73.1594C48.54 72.2087 48.8733 70.9242 49.5616 70.085C49.8974 69.6756 50.3041 69.3876 50.7981 69.2739C51.2388 69.1725 51.795 69.1991 52.4952 69.4657C52.5258 69.9675 52.4669 70.6238 52.2157 71.2079C51.9265 71.8804 51.3877 72.4568 50.3803 72.6247L50.4709 73.1681C50.1705 73.1344 49.8348 73.1179 49.4625 73.1179C47.2437 73.1179 45.9196 74.2833 45.2031 75.7123C44.5671 76.9807 44.4038 78.4561 44.4458 79.5326C44.3527 79.5916 44.2654 79.6484 44.1852 79.7019L44.0869 79.7673L44.0284 79.8698C43.559 80.6912 43.4434 81.7073 43.5233 82.7589C43.6036 83.8162 43.8853 84.9596 44.2639 86.0782C44.9835 88.2046 46.0754 90.3067 46.9102 91.6751C46.8477 91.9127 46.8419 92.163 46.8685 92.4078C46.9062 92.7534 47.0124 93.123 47.1594 93.4986C47.4532 94.2493 47.9378 95.0927 48.4961 95.9323C49.6154 97.6153 51.0838 99.3615 52.0951 100.457L52.0977 100.46C58.1121 106.875 62.3268 109.859 63.7389 110.565L63.7459 110.569L63.753 110.572C64.3294 110.838 65.0332 111.363 65.8446 112.133C66.6501 112.898 67.5367 113.881 68.4803 115.033C70.3673 117.337 72.4597 120.293 74.5573 123.48C78.7475 129.847 82.9361 137.101 85.5155 141.843C86.1411 143.191 87.5473 145.36 89.3872 147.96C91.2422 150.581 93.5625 153.675 96.029 156.873C100.91 163.203 106.374 169.955 109.962 174.298L109.963 178.973C109.57 179.628 109.531 180.23 109.777 180.727C110.017 181.214 110.475 181.482 110.804 181.592L110.821 181.598L110.838 181.602C113.756 182.352 118.182 183.478 121.98 184.416C123.879 184.885 125.622 185.307 126.942 185.613C127.601 185.765 128.158 185.89 128.576 185.976C128.785 186.019 128.963 186.053 129.104 186.077C129.231 186.098 129.364 186.118 129.463 186.118C129.97 186.118 130.508 185.85 130.936 185.58C131.336 185.327 131.716 185.023 132.006 184.763C132.023 184.772 132.041 184.78 132.057 184.788C132.244 184.873 132.473 184.946 132.726 185.011C133.234 185.142 133.906 185.255 134.69 185.355C136.262 185.554 138.346 185.705 140.613 185.817C145.149 186.043 150.458 186.118 153.963 186.118V185.118C150.467 185.118 145.176 185.043 140.662 184.819C138.404 184.706 136.35 184.557 134.816 184.362C134.047 184.265 133.423 184.158 132.975 184.043C132.757 183.986 132.594 183.932 132.482 183.882L138.403 169.362C138.581 169.106 138.73 168.77 138.858 168.4C139 167.994 139.128 167.512 139.246 166.981C139.482 165.917 139.681 164.621 139.846 163.266C140.156 160.732 140.351 157.957 140.444 156.032C141.788 155.706 144.012 154.588 144.866 152.006L154.628 148.59L154.297 147.646L144.053 151.232L143.982 151.481C143.283 153.928 141.116 154.899 140.016 155.103L120.731 147.685L114.812 142.26L102.342 129.291L90.8672 114.324L79.981 98.4894C80.0347 97.7819 79.8084 96.916 79.4649 96.0268C79.0775 95.024 78.5043 93.9023 77.8583 92.7808C76.5655 90.5363 74.9523 88.2429 73.8597 86.8142L73.0654 87.4216C74.1394 88.8262 75.7263 91.0828 76.9918 93.2799C77.625 94.3793 78.1705 95.4514 78.5321 96.3871C78.9026 97.3461 79.0456 98.0781 78.9693 98.5357L78.9362 98.7348L90.0579 114.912L101.583 129.944L114.113 142.976L120.186 148.542L119.98 148.486L112.707 175.155L111.17 173.618H110.698C107.114 169.28 101.678 162.56 96.8209 156.263C94.3583 153.069 92.0473 149.988 90.2034 147.382C88.3512 144.765 86.9944 142.661 86.4165 141.408L86.4096 141.393L86.4017 141.379C83.8138 136.621 79.6066 129.333 75.3926 122.931C73.2861 119.73 71.1722 116.742 69.254 114.4C68.295 113.228 67.3793 112.212 66.5331 111.408C65.6957 110.613 64.901 110.002 64.1795 109.667C62.9172 109.033 58.803 106.15 52.8286 99.7773C51.8399 98.7061 50.4091 97.0031 49.3288 95.3785C48.7871 94.5639 48.3468 93.7886 48.0906 93.1341C47.9626 92.807 47.8875 92.5274 47.8627 92.2995C47.8376 92.0696 47.8672 91.9265 47.9097 91.8415L48.0351 91.5907L47.8865 91.3529C47.3058 90.4238 46.5679 89.0767 45.9288 87.6059C46.3978 87.5828 46.9573 87.5234 47.4542 87.4041C47.7888 87.3238 48.1333 87.2076 48.4058 87.0316C48.6351 86.8834 48.8736 86.6497 48.9427 86.3149C49.3103 86.7029 49.75 87.1975 50.1301 87.687C50.383 88.0127 50.601 88.3255 50.7535 88.5961C50.8421 88.7534 50.8959 88.875 50.9267 88.9632L49.9882 89.276C50.0586 89.4872 50.076 90.6868 48.1502 92.2275L48.7749 93.0083C50.7188 91.4532 51.149 89.95 50.9789 89.1179H51.9625C51.9625 88.779 51.7989 88.4145 51.6248 88.1053C51.4386 87.7749 51.1879 87.4189 50.92 87.0738C50.4264 86.438 49.8457 85.8029 49.4234 85.3727L48.9935 83.2229L49.9625 81.7693V81.6179C49.9625 81.1712 49.9099 80.4786 49.7474 79.8333C49.6661 79.5105 49.5528 79.1807 49.3928 78.8943C49.286 78.7033 49.1486 78.514 48.9712 78.3615L50.7625 77.0179C51.1166 76.7524 51.4999 76.4155 51.8109 76.0527C52.1097 75.7041 52.3969 75.2687 52.4582 74.809C52.4907 74.5649 52.4603 74.3055 52.3263 74.0623C52.194 73.8221 51.9837 73.6391 51.7269 73.5037C51.629 73.4521 51.5213 73.4058 51.4036 73.3648C52.2782 72.9923 52.8234 72.3262 53.1344 71.6029C53.5254 70.6938 53.5503 69.6965 53.4575 69.0472L53.4362 68.898ZM48.4341 78.0799L48.1625 77.7179L50.1625 76.2179C50.4752 75.9834 50.8002 75.6953 51.0517 75.4019C51.3154 75.0942 51.4449 74.8422 51.4669 74.6768C51.4761 74.6084 51.4648 74.5709 51.4504 74.5447C51.4342 74.5153 51.3893 74.4561 51.2607 74.3884C50.9857 74.2434 50.4404 74.1179 49.4625 74.1179C47.6814 74.1179 46.6722 75.0133 46.097 76.1605C45.6535 77.045 45.4735 78.0781 45.444 78.949C45.844 78.7339 46.274 78.5255 46.6885 78.3635C47.0318 78.2292 47.382 78.1199 47.7059 78.0698C47.9349 78.0343 48.1911 78.0218 48.4341 78.0799ZM48.7535 86.1179C48.703 86.0661 48.6547 86.0172 48.609 85.9715L48.5019 85.8644L47.9316 83.0129L48.9604 81.4697C48.9499 81.0864 48.8987 80.5583 48.7777 80.0775C48.7089 79.8044 48.6223 79.5655 48.5198 79.3821C48.4154 79.1953 48.3158 79.1035 48.2389 79.0651C48.2063 79.0488 48.0962 79.0213 47.8589 79.058C47.6351 79.0927 47.3603 79.1745 47.0525 79.2948C46.4386 79.5348 45.7621 79.9001 45.222 80.2279C45.0842 80.3116 44.9565 80.392 44.8425 80.4663C44.5533 81.0344 44.4523 81.7865 44.5204 82.6832C44.5922 83.6279 44.848 84.6845 45.2111 85.7576C45.3084 86.0451 45.4129 86.3324 45.523 86.6176C45.9984 86.6137 46.6713 86.5636 47.2209 86.4317C47.5113 86.362 47.7293 86.2781 47.8631 86.1917C47.9319 86.1472 47.9563 86.1179 47.9638 86.1056C47.9631 86.1086 47.9625 86.1127 47.9625 86.1179H48.7535ZM47.9665 86.0989C47.9669 86.0989 47.9664 86.1011 47.9638 86.1056C47.9648 86.101 47.9661 86.0988 47.9665 86.0989ZM110.962 174.825L110.963 179.269L110.879 179.395C110.549 179.889 110.61 180.156 110.673 180.284C110.755 180.45 110.939 180.579 111.106 180.639C114.022 181.388 118.434 182.51 122.22 183.445C124.117 183.914 125.855 184.335 127.167 184.639C127.824 184.791 128.372 184.913 128.778 184.996C128.982 185.038 129.146 185.07 129.27 185.091C129.332 185.101 129.381 185.109 129.417 185.113C129.451 185.117 129.464 185.118 129.464 185.118C129.668 185.117 129.998 184.99 130.402 184.734C130.749 184.515 131.089 184.243 131.351 184.008L137.524 168.869L137.563 168.818C137.666 168.679 137.787 168.436 137.914 168.072C138.038 167.715 138.157 167.274 138.27 166.764C138.495 165.746 138.69 164.485 138.854 163.145C139.161 160.628 139.355 157.863 139.447 155.955L120.923 148.831L113.218 177.081L110.962 174.825ZM58.1535 66.503L58.3786 66.8405C58.8608 67.5639 59.7369 68.6837 60.7804 69.6664C61.8388 70.6634 62.9975 71.4501 64.0447 71.6247C64.8115 71.7525 65.4785 72.2674 66.0395 72.9113C66.6075 73.5631 67.117 74.4045 67.5602 75.2951C68.4154 77.0137 69.0603 78.991 69.4097 80.3471C70.1702 81.0328 71.2495 82.0981 72.1603 83.1992C72.6388 83.7776 73.0802 84.3772 73.4045 84.9449C73.7203 85.4977 73.9625 86.0835 73.9625 86.6179H72.9625C72.9625 86.3523 72.8298 85.9548 72.5362 85.4409C72.2511 84.9419 71.8488 84.3915 71.3898 83.8366C70.4725 82.7277 69.3666 81.646 68.6304 80.9916L68.5149 80.889L68.4775 80.7392C68.1501 79.4298 67.5111 77.4411 66.6649 75.7406C66.2414 74.8896 65.776 74.131 65.2856 73.5682C64.7883 72.9975 64.3135 72.6833 63.8803 72.6111C62.5276 72.3856 61.1862 71.4224 60.0947 70.3944C59.1466 69.5013 58.3325 68.507 57.7932 67.752C57.4878 67.9204 57.1456 68.1652 56.8759 68.4726C56.5031 68.8977 56.2988 69.4013 56.4476 69.9966C56.6806 70.9285 57.2755 72.1265 57.8419 73.1964C57.9441 73.3893 58.0458 73.5792 58.1435 73.7613C58.3094 74.0708 58.4635 74.3583 58.5876 74.6016C58.6869 74.7962 58.774 74.976 58.8373 75.128C58.8689 75.204 58.8978 75.2807 58.9194 75.3539C58.9287 75.3851 58.9388 75.4227 58.9469 75.4645C58.9531 75.4704 58.9604 75.477 58.9686 75.4844C59.0597 75.5658 59.1977 75.6702 59.3967 75.8204C59.7805 76.1103 60.3206 76.5189 60.8786 77.0768C61.6469 77.8451 62.4482 78.8958 62.9625 80.3281V79.6179C62.9415 79.6179 62.9286 79.6221 62.9241 79.624C62.9287 79.6215 62.9422 79.6129 62.965 79.5913C63.0202 79.5388 63.0888 79.4471 63.1622 79.314C63.308 79.0495 63.4212 78.7174 63.478 78.4944L64.447 78.7414C64.3764 79.0184 64.2367 79.4362 64.0379 79.7968C63.9389 79.9762 63.8123 80.1657 63.6536 80.3164C63.5138 80.4491 63.3135 80.5844 63.0592 80.6126C63.248 81.2012 63.3883 81.8509 63.4601 82.5681C63.5567 83.5342 63.6359 84.4041 63.7005 85.1778C64.322 85.4841 66.3896 86.2299 69.5246 86.6217L69.4005 87.614C66.7581 87.2837 64.8133 86.7048 63.7897 86.3045C63.9216 88.0746 63.9625 89.1797 63.9625 89.6179H62.9625C62.9625 88.976 62.8645 86.662 62.465 82.6676C62.2291 80.3086 61.1731 78.7856 60.1715 77.7839C59.6669 77.2794 59.1758 76.9068 58.7941 76.6185L58.7703 76.6005C58.5949 76.4681 58.4262 76.3407 58.3022 76.2299C58.2888 76.218 58.2751 76.2055 58.2613 76.1925C58.3851 76.4754 58.4625 76.7853 58.4625 77.1179V77.1367C58.4625 77.4953 58.4625 77.7547 58.4542 77.9307C58.4541 77.9312 58.4541 77.9317 58.4541 77.9322C58.5021 77.8798 58.5492 77.8286 58.5951 77.7788L59.3299 78.4571C58.3375 79.5322 56.8488 81.2444 55.6115 82.8818C54.9921 83.7014 54.4433 84.4924 54.0516 85.1697C53.8558 85.5085 53.7045 85.8099 53.6034 86.0658C53.4993 86.3293 53.4625 86.5099 53.4625 86.6179H52.4625C52.4625 86.3259 52.5508 86.0086 52.6733 85.6985C52.7987 85.3808 52.9756 85.033 53.1859 84.6692C53.6068 83.9413 54.183 83.1135 54.8136 82.279C55.7653 81.0196 56.8583 79.7221 57.7704 78.6921C57.6949 78.6816 57.6229 78.657 57.5989 78.6488C57.5967 78.648 57.5949 78.6474 57.5935 78.6469C57.5287 78.6253 57.5008 78.6179 57.4625 78.6179C57.1856 78.6179 56.9477 78.4615 56.8033 78.3516C56.6356 78.2238 56.4685 78.0583 56.3171 77.8913C56.0125 77.5553 55.7225 77.1592 55.5465 76.8953L56.3786 76.3406C56.536 76.5766 56.7959 76.9305 57.058 77.2196C57.1899 77.3651 57.3104 77.4808 57.4093 77.5561C57.4299 77.5718 57.4473 77.584 57.4615 77.5934C57.4625 77.4674 57.4625 77.3116 57.4625 77.1179C57.4625 76.7046 57.2291 76.2815 56.8521 75.8894C56.4813 75.5038 56.0301 75.2107 55.7389 75.0651L56.1862 74.1707C56.5616 74.3584 57.1104 74.7153 57.573 75.1963C57.7093 75.3381 57.8435 75.4964 57.9648 75.6698C57.9641 75.6624 57.9636 75.6549 57.9633 75.6473C57.9626 75.6447 57.9616 75.6414 57.9605 75.6375C57.9526 75.6109 57.938 75.5699 57.914 75.5121C57.8659 75.3965 57.7928 75.2442 57.6968 75.0561C57.5767 74.8206 57.4315 74.5497 57.27 74.2485C57.1714 74.0647 57.0668 73.8696 56.9581 73.6643C56.3996 72.6093 55.7445 71.3073 55.4775 70.2392C55.2263 69.2345 55.6053 68.4048 56.1241 67.8132C56.6337 67.2322 57.3057 66.8421 57.7768 66.6536L58.1535 66.503ZM62.9224 79.6248C62.9224 79.6248 62.923 79.6245 62.9241 79.624ZM58.673 89.0417C59.2703 87.7781 59.736 86.3817 59.9802 85.4864L60.9449 85.7495C60.6891 86.6874 60.2048 88.1411 59.5771 89.4691C59.2633 90.133 58.9077 90.7782 58.5193 91.3155C58.1371 91.8443 57.6923 92.312 57.1862 92.5651C56.4737 92.9213 55.5269 93.777 54.6017 94.7605C53.6914 95.7282 52.8533 96.7636 52.3625 97.4179L51.5625 96.8179C52.0718 96.1388 52.9337 95.0742 53.8734 94.0753C54.7982 93.0921 55.8513 92.1145 56.7389 91.6707C57.0327 91.5238 57.363 91.2082 57.7089 90.7297C58.0486 90.2596 58.3743 89.6736 58.673 89.0417ZM64.8773 95.6261C65.6953 96.8408 66.6806 98.0481 67.3362 98.7857L66.9037 99.1702L66.9575 99.5472C67.0336 100.08 67.2681 100.977 67.7219 101.881C68.1763 102.786 68.8295 103.655 69.7198 104.189L69.2053 105.047C68.0956 104.381 67.3321 103.333 66.8282 102.33C66.4996 101.675 66.2724 101.022 66.1288 100.471L62.6765 102.937L61.4818 98.7552L62.4433 98.4805L63.2486 101.299L66.3001 99.1195C65.6427 98.355 64.783 97.2764 64.0478 96.1847C63.6237 95.5548 63.2342 94.9106 62.9488 94.313C62.6703 93.7297 62.4625 93.1337 62.4625 92.6179H63.4625C63.4625 92.9021 63.5881 93.331 63.8512 93.8821C64.1076 94.419 64.4681 95.0184 64.8773 95.6261ZM69.1929 107.92C70.0593 106.894 70.975 105.657 71.5529 104.831L72.3722 105.405C71.7834 106.246 70.8491 107.509 69.9571 108.565C69.5124 109.092 69.0685 109.58 68.6775 109.939C68.4827 110.118 68.2893 110.276 68.1065 110.393C67.9409 110.499 67.7118 110.618 67.4625 110.618L67.4625 109.618C67.4473 109.618 67.4392 109.619 67.4391 109.619C67.4388 109.618 67.4787 109.607 67.569 109.55C67.6824 109.477 67.8273 109.362 68.0007 109.203C68.3461 108.885 68.7586 108.435 69.1929 107.92ZM70.9905 109.726C71.7571 108.725 72.5507 107.584 73.0465 106.841L73.8786 107.395C73.3744 108.151 72.568 109.311 71.7846 110.334C71.3933 110.845 71.0028 111.329 70.6555 111.714C70.482 111.906 70.3145 112.079 70.1593 112.22C70.0102 112.355 69.848 112.484 69.6861 112.565L69.2389 111.671C69.2771 111.652 69.3586 111.596 69.4869 111.48C69.6091 111.369 69.7525 111.222 69.9133 111.044C70.2348 110.688 70.6068 110.228 70.9905 109.726Z" fill="white"/>
<path fill-rule="evenodd" clip-rule="evenodd" d="M2.075 1.49798L2.15312 0.501099L2.16383 0.501938L129.5 9.10524V12.8624L2.08571 1.49882L2.075 1.49798ZM48.516 4.63587L128.5 11.7693V10.04L48.516 4.63587ZM2.0675 17.6138L2.15776 16.618L127.442 26.2549V30.7018L2.0675 17.6138ZM38.6737 20.4297L126.442 29.592V27.1809L38.6737 20.4297ZM3.17893 36.8489L126.071 44.4217V49.8855L1.61942 41.2435V37.3479H2.61942V40.3105L125.071 48.8137V45.362L3.11743 37.847L3.17893 36.8489ZM3.1777 56.3944L125.281 63.6171L125.37 63.9733C125.49 64.4545 125.634 65.2236 125.676 65.9873C125.697 66.3694 125.693 66.7634 125.644 67.1259C125.596 67.4812 125.498 67.8481 125.301 68.1439C125.208 68.2832 125.076 68.3358 125.044 68.3484C124.991 68.3698 124.94 68.3823 124.902 68.3902C124.825 68.4063 124.734 68.4168 124.641 68.4244C124.451 68.4399 124.19 68.4484 123.868 68.4514C123.22 68.4573 122.289 68.4412 121.106 68.4057C118.74 68.3345 115.347 68.1848 111.169 67.9737C102.81 67.5513 91.2944 66.8825 78.5259 66.1024C52.9883 64.5421 22.433 62.536 2.08579 61.1644L1.61942 61.1329V56.8935H2.61942V60.1981C22.9639 61.5687 53.2465 63.556 78.5869 65.1043C91.3545 65.8844 102.866 66.5529 111.219 66.975C115.396 67.186 118.781 67.3353 121.136 67.4061C122.315 67.4416 123.231 67.4572 123.858 67.4514C124.167 67.4486 124.396 67.4406 124.549 67.4285C124.592 67.3171 124.629 67.1722 124.653 66.9912C124.691 66.7122 124.696 66.386 124.677 66.0423C124.648 65.5198 124.566 64.9872 124.48 64.5715L3.11865 57.3927L3.1777 56.3944ZM1.49636 76.6037L124.805 80.76L123.921 85.1783L2.74202 82.4165L1.49636 76.6037ZM2.74248 77.6462L3.55434 81.4348L123.105 84.1594L123.593 81.7197L2.74248 77.6462ZM1.61942 95.9848H2.61942V96.5305L121.613 100.645V105.415L1.61942 101.957V95.9848ZM2.61942 97.5311V100.985L120.613 104.386V101.611L2.61942 97.5311ZM1.61942 116.389L121.142 119.507L119.744 123.233L1.61942 122.543V116.389ZM2.61942 117.415V121.548L119.053 122.229L119.712 120.47L2.61942 117.415ZM1.61942 136.278L117.417 139.044L118.283 143.806H1.61942V136.278ZM2.61942 137.303V142.806H117.085L116.579 140.024L2.61942 137.303ZM118.093 155.835L119.322 161.98H118.712C101.341 161.98 73.1382 162.237 48.9334 162.494C35.3611 162.638 23.0435 162.782 14.5998 162.881C7.9884 162.959 3.75207 163.008 3.14818 163.008C2.32872 163.008 1.69821 162.711 1.26086 162.194C0.840379 161.697 0.636934 161.043 0.551926 160.387C0.38222 159.075 0.658525 157.542 0.953895 156.538L1.05914 156.18L118.093 155.835ZM1.81561 157.178C1.58523 158.088 1.41646 159.275 1.54365 160.258C1.61582 160.816 1.77673 161.255 2.02423 161.548C2.25485 161.82 2.59595 162.008 3.14818 162.008C3.74784 162.008 7.96434 161.959 14.5503 161.882C22.9911 161.783 35.3239 161.639 48.9228 161.494C72.8458 161.24 100.68 160.986 118.103 160.98L117.274 156.837L1.81561 157.178ZM2.12382 177.439L119.382 178.471L121.196 182.554H120.427C101.797 182.554 72.1874 182.725 47.1655 182.897C27.5813 183.031 10.8042 183.165 4.30743 183.217C2.5048 183.232 1.49364 183.24 1.43358 183.24C1.07028 183.24 0.8862 182.963 0.815531 182.815C0.738366 182.653 0.69843 182.46 0.67439 182.281C0.624882 181.912 0.622204 181.427 0.642493 180.92C0.683436 179.896 0.823014 178.678 0.938602 177.868L1.92855 178.01C1.81552 178.801 1.68077 179.983 1.64169 180.96C1.62197 181.452 1.62787 181.867 1.66552 182.148C1.67007 182.182 1.67483 182.212 1.67957 182.238C2.082 182.235 2.96434 182.228 4.26538 182.218C10.7296 182.166 27.5298 182.031 47.1586 181.897C71.8386 181.728 100.985 181.559 119.658 181.554L118.729 179.465L2.11502 178.439L2.12382 177.439ZM0.878011 196.983L121.689 197.329L120.861 203.123L1.66984 204.505L0.878011 196.983ZM1.98914 197.986L2.56899 203.495L119.993 202.133L120.537 198.326L1.98914 197.986Z" fill="white" fill-opacity="0.7"/>
<path fill-rule="evenodd" clip-rule="evenodd" d="M56.8595 66.4494L127.161 1.63235L127.839 2.36756L57.3668 67.3419L55.5 69.6753V73.1403L52.4309 72.3731L53.0224 68.8241L54.7619 65.925L56.8595 66.4494ZM56.1228 67.296L55.2382 67.0749L53.9776 69.1758L53.5691 71.6268L54.5 71.8596V69.3246L56.1228 67.296Z" fill="white"/>
</svg>
