<svg width="155" height="205" viewBox="0 0 155 205" fill="none" xmlns="http://www.w3.org/2000/svg">
<path d="M153.962 185.618C146.962 185.618 132.762 185.318 131.962 184.118C131.907 184.174 131.842 184.235 131.771 184.302M110.462 174.118L110.462 179.118C109.662 180.318 110.462 180.951 110.962 181.118C116.796 182.618 128.662 185.618 129.462 185.618C130.173 185.618 131.2 184.828 131.771 184.302M110.462 174.118C103.296 165.451 88.3625 146.818 85.9625 141.618C80.7958 132.118 69.1625 112.518 63.9625 110.118C62.6291 109.451 58.4625 106.518 52.4625 100.118C50.4625 97.9513 46.6625 93.2179 47.4625 91.6179C45.7958 88.9513 42.8625 82.9179 44.4625 80.1179C44.6068 80.0217 44.7761 79.9137 44.9625 79.8005M110.462 174.118H110.962L112.963 176.118L120.463 148.618M51.4625 89.1179C51.4625 88.3179 49.7959 86.4513 48.9625 85.6179L48.4625 83.1179L49.4625 81.6179C49.4625 80.7846 49.2625 79.0179 48.4625 78.6179C47.778 78.2756 46.0683 79.1293 44.9625 79.8005M44.9625 79.8005C44.7959 77.7397 45.4625 73.6179 49.4625 73.6179C53.4625 73.6179 51.7959 75.6179 50.4625 76.6179L48.4625 78.1179M47.9625 73.1179C48.1292 71.1179 49.3625 67.5179 52.9625 69.1179C53.1292 70.2846 52.8626 72.7179 50.4625 73.1179M50.4625 68.6179C50.4625 66.7846 51.2625 63.3179 54.4625 64.1179C54.9625 64.9512 55.3625 67.0179 52.9625 68.6179M63.4625 89.6179C63.4625 88.9513 63.3625 86.6179 62.9625 82.6179C62.4625 77.6179 58.4625 76.1179 58.4625 75.6179C58.4625 75.1179 56.4625 72.1179 55.9625 70.1179C55.5625 68.5179 57.1292 67.4513 57.9625 67.1179C58.9625 68.6179 61.5625 71.7179 63.9625 72.1179C66.3625 72.5179 68.2959 77.9513 68.9625 80.6179C70.4625 81.9513 73.4625 85.0179 73.4625 86.6179M73.4625 87.1179C75.6292 89.9513 79.8625 96.2179 79.4625 98.6179L90.4625 114.618L101.963 129.618L114.463 142.618L120.463 148.118L139.963 155.618M139.963 155.618C141.129 155.451 143.663 154.418 144.463 151.618L154.463 148.118M139.963 155.618C139.796 159.451 139.163 167.518 137.963 169.118L131.771 184.302M58.9625 78.1179C56.9625 80.2846 52.9625 85.0179 52.9625 86.6179M55.9625 76.6179C56.2959 77.1179 57.0625 78.1179 57.4625 78.1179C57.9625 78.1179 57.9625 78.6179 57.9625 77.1179C57.9625 75.9179 56.6292 74.9513 55.9625 74.6179M45.4625 87.1179C46.4625 87.1179 48.4625 86.9179 48.4625 86.1179M50.4625 89.1179C50.6292 89.6179 50.4625 91.0179 48.4625 92.6179M60.4625 85.6179C59.9625 87.4513 58.5625 91.3179 56.9625 92.1179C55.3625 92.9179 52.9625 95.7846 51.9625 97.1179M66.9625 99.1179C65.6292 97.6179 62.9625 94.2179 62.9625 92.6179M61.9625 98.6179L62.9625 102.118L66.4625 99.6179C66.6292 100.785 67.4625 103.418 69.4625 104.618M63.4625 85.6179C64.1292 85.9513 66.2625 86.7179 69.4625 87.1179M63.9625 78.6179C63.835 79.1179 63.4566 80.1179 62.9625 80.1179M71.9625 105.118C70.7959 106.785 68.2625 110.118 67.4625 110.118M73.4625 107.118C72.4625 108.618 70.2625 111.718 69.4625 112.118" stroke="white"/>
<path d="M2.1194 37.348V40.777L125.571 49.3497V44.8919L3.14816 37.348M2.1194 56.8936V60.6655C42.8126 63.4088 124.336 68.6895 124.885 67.8666C125.434 67.0436 125.114 65.009 124.885 64.0946L3.14816 56.8936M2.1194 95.9848V97.0135M2.1194 97.0135V101.471L121.113 104.9V101.128L2.1194 97.0135ZM1.43356 177.939C1.20494 179.539 0.884884 182.74 1.43356 182.74C1.98223 182.74 83.163 182.054 120.427 182.054L119.055 178.968L2.1194 177.939M2.1194 1L129 9.57264V12.3159L2.1194 1ZM2.1194 17.1166L126.942 26.7179V30.147L2.1194 17.1166ZM2.1194 77.125L3.14816 81.9257L123.513 84.6689L124.199 81.2399L2.1194 77.125ZM2.1194 116.902V122.046L119.398 122.731L120.427 119.988L2.1194 116.902ZM2.1194 136.791V143.306H117.684L116.998 139.534L2.1194 136.791ZM1.43356 156.679C0.862022 158.622 0.404795 162.508 3.14816 162.508C5.89152 162.508 83.9631 161.48 118.712 161.48L117.684 156.336L1.43356 156.679ZM1.43356 197.485L2.1194 204L120.427 202.628L121.113 197.828L1.43356 197.485Z" stroke="white" stroke-opacity="0.7"/>
<path d="M127.5 2L57 67M57 67L55 66.5L53.5 69L53 72L55 72.5V69.5L57 67Z" stroke="white"/>
</svg>
