<svg width="275" height="292" viewBox="0 0 275 292" fill="none" xmlns="http://www.w3.org/2000/svg">
<path d="M271 65L6 75V65H271Z" stroke="white" stroke-opacity="0.62"/>
<path d="M4.17778 223.988L270.822 131.847V123.759L1 216.189V223.988M4.17778 150.333L274 97.1853V89.0976L4.17778 141.667V150.333ZM9.66667 291L274 160.731L267.067 154.088L4.17778 285.512L9.66667 291ZM4.17778 7.64343C6.72 7.64343 185.119 23.0485 274 30.751L270.822 23.8187L4.17778 1V7.64343Z" stroke="white" stroke-opacity="0.62"/>
<path d="M190.218 266C189.375 262.552 188.531 253.589 191.905 245.314C192.116 242.289 191.694 235.098 188.32 230.539C184.103 224.84 181.572 171.859 180.518 171.437C179.463 171.015 169.299 168.862 160.695 163.627C149.94 157.084 143.192 149.907 140.872 149.907C138.552 149.907 109.24 134.498 109.662 129.433C110.083 124.367 110.505 120.145 118.519 120.145C124.929 120.145 131.453 123.522 133.913 125.211L148.675 134.076C151.838 131.614 156.73 124.536 150.994 115.924C143.824 105.159 144.035 105.159 143.403 101.992C142.77 98.8263 129.695 88.2724 128.219 86.3727C126.743 84.473 109.451 73.2858 105.866 72.0194C102.281 70.7529 87.7299 66.1092 93.6346 56.8218C94.689 55.9071 97.4726 54.4999 100.172 56.1885C102.871 57.8772 133.491 68.0089 133.491 68.0089M93.4237 65.2649C90.4011 64.7724 84.7354 62.6475 86.2538 58.0882C86.8161 56.2589 89.0374 52.6846 93.4237 53.0223C98.9066 53.4445 117.464 55.5553 119.995 56.1885C122.525 56.8218 125.478 58.7215 136.022 59.9879C138.623 61.8876 144.963 67.0802 149.518 72.6526C155.212 79.6182 162.593 88.2724 168.286 91.8607C169.2 92.3532 171.45 94.5625 173.137 99.4595L183.259 113.813C192.116 124.859 209.914 146.994 210.252 147.163C210.674 147.374 212.993 149.696 217 160.039M161.327 130.699C159.851 130.347 156.519 130.868 155.001 135.765M166.178 137.242C165.441 137.328 164.408 137.426 163.436 137.481M160.695 137.242C160.695 137.545 161.997 137.561 163.436 137.481M165.756 135.765C164.983 135.924 163.436 136.489 163.436 137.481M136.443 130.699C137.006 133.865 136.739 140.831 131.171 143.364M140.872 135.765C141.153 137.946 140.661 142.984 136.443 145.686M117.675 66.5314C115.847 67.3874 112.319 69.8101 112.825 72.6526M134.967 76.8742C135.389 79.196 134.925 84.0086 129.695 84.6841M202.238 174.814C198.617 173.3 192.202 171.014 187.055 170.168M180.518 170.382C181.926 169.677 184.31 169.718 187.055 170.168M187.055 170.168C190.991 173.828 198.696 182.075 198.021 185.79C197.177 190.434 217 236.871 217 233.705" stroke="white"/>
</svg>
