<svg width="693" height="1104" viewBox="0 0 693 1104" fill="none" xmlns="http://www.w3.org/2000/svg">
<path d="M231.027 174C166.36 177.5 49.6268 203.2 100.027 278C150.427 352.8 121.027 426.5 100.027 454C56.3602 480.333 -22.8732 545 9.52685 593C41.9269 641 37.0269 719.333 30.5269 752.5M214.527 261C185.527 279.333 136.227 331 171.027 391C214.527 466 201.527 517 171.027 555C140.527 593 80.0269 624 125.527 663.5C171.027 703 229.527 775.5 214.527 823.5C202.527 861.9 220.527 900.833 231.027 915.5C247.694 948 262.927 1030.8 190.527 1102M692.027 2C632.36 6 518.127 33.6 538.527 112C564.027 210 461.027 247.5 368.027 247.5C275.027 247.5 255.527 420.5 285.527 454C315.527 487.5 421.027 654 326.027 674C231.027 694 235.027 845.5 270.027 880.5C298.027 908.5 319.027 996.833 326.027 1037.5" stroke="white" stroke-opacity="0.8" stroke-width="3"/>
</svg>
